<svg xmlns="http://www.w3.org/2000/svg" width="147" height="175" viewBox="0 0 147 175">
  <g id="insta" transform="translate(-53 -740)">
    <rect id="Rectangle_8" data-name="Rectangle 8" width="147" height="175" rx="17" transform="translate(53 740)" fill="#e22e65"/>
    <path id="instagram" d="M28.128,45.566A14.462,14.462,0,1,1,13.666,60.028,14.439,14.439,0,0,1,28.128,45.566Zm0,23.864a9.4,9.4,0,1,0-9.4-9.4A9.419,9.419,0,0,0,28.128,69.43ZM9.7,44.975A3.373,3.373,0,1,0,13.075,41.6,3.365,3.365,0,0,0,9.7,44.975ZM.123,48.4c.214-4.518,1.246-8.521,4.556-11.819s7.3-4.33,11.819-4.556c4.657-.264,18.615-.264,23.272,0,4.506.214,8.508,1.246,11.819,4.544s4.33,7.3,4.556,11.819c.264,4.657.264,18.615,0,23.272-.214,4.518-1.246,8.521-4.556,11.819s-7.3,4.33-11.819,4.556c-4.657.264-18.615.264-23.272,0-4.518-.214-8.521-1.246-11.819-4.556S.35,76.176.123,71.658C-.141,67-.141,53.055.123,48.4ZM6.139,76.654A9.519,9.519,0,0,0,11.5,82.016c3.713,1.473,12.523,1.133,16.627,1.133s12.926.327,16.627-1.133a9.519,9.519,0,0,0,5.362-5.362c1.473-3.713,1.133-12.523,1.133-16.627S51.576,47.1,50.116,43.4a9.519,9.519,0,0,0-5.362-5.362c-3.713-1.473-12.523-1.133-16.627-1.133S15.2,36.579,11.5,38.039A9.519,9.519,0,0,0,6.139,43.4C4.667,47.114,5.007,55.925,5.007,60.028S4.667,72.954,6.139,76.654Z" transform="translate(98.075 767.175)" fill="#fff"/>
  </g>
</svg>
