<svg xmlns="http://www.w3.org/2000/svg" width="147" height="175" viewBox="0 0 147 175">
  <g id="snap" transform="translate(-230 -533)">
    <rect id="Rectangle_7" data-name="Rectangle 7" width="147" height="175" rx="17" transform="translate(230 533)" fill="#fffc00"/>
    <path id="snapchat" d="M70.456,58.292a3.984,3.984,0,0,0-2.021-2.144c-.163-.1-.312-.171-.439-.23-.258-.133-.521-.262-.784-.4a17.106,17.106,0,0,1-6.255-5.365,12.152,12.152,0,0,1-1.074-1.9.9.9,0,0,1-.029-.743,1.207,1.207,0,0,1,.344-.359c.463-.306.94-.617,1.264-.826.577-.373,1.034-.669,1.328-.879a7.238,7.238,0,0,0,2.362-2.513,5,5,0,0,0,.248-4.156,4.915,4.915,0,0,0-4.758-3.124,6.56,6.56,0,0,0-1.384.146c-.122.026-.243.054-.362.085.021-1.318-.009-2.709-.126-4.079a14.873,14.873,0,0,0-3.859-9.35A15.374,15.374,0,0,0,50.988,19.3,17.884,17.884,0,0,0,42,17a17.845,17.845,0,0,0-8.976,2.3,15.323,15.323,0,0,0-3.931,3.163,14.884,14.884,0,0,0-3.859,9.35c-.117,1.369-.146,2.768-.127,4.079-.118-.031-.239-.059-.36-.085a6.55,6.55,0,0,0-1.384-.146,4.913,4.913,0,0,0-4.76,3.124,5.011,5.011,0,0,0,.242,4.161,7.264,7.264,0,0,0,2.364,2.513c.293.205.751.5,1.328.879.312.2.768.5,1.214.794a1.306,1.306,0,0,1,.39.391.925.925,0,0,1-.043.78,12.05,12.05,0,0,1-1.056,1.864,17.058,17.058,0,0,1-6.075,5.272c-1.381.732-2.817,1.221-3.423,2.869a3.626,3.626,0,0,0,1,3.85,5.8,5.8,0,0,0,1.465,1.109A15.867,15.867,0,0,0,19.6,64.7a2.365,2.365,0,0,1,.724.324c.423.371.363.928.927,1.746a4.071,4.071,0,0,0,1.06,1.078,6.96,6.96,0,0,0,3.922.923,14.922,14.922,0,0,1,4.363.647A11.209,11.209,0,0,1,32.8,70.585a16.173,16.173,0,0,0,18.42-.013,11.4,11.4,0,0,1,2.184-1.153,14.866,14.866,0,0,1,4.363-.647,6.96,6.96,0,0,0,3.922-.923A4.085,4.085,0,0,0,62.9,66.531c.406-.69.4-1.172.776-1.508a2.241,2.241,0,0,1,.679-.311,15.932,15.932,0,0,0,3.632-1.447,5.71,5.71,0,0,0,1.538-1.2l.015-.018A3.579,3.579,0,0,0,70.456,58.292ZM66.439,60.45c-2.45,1.353-4.079,1.208-5.346,2.024-1.076.693-.439,2.187-1.222,2.726-.961.663-3.8-.047-7.469,1.164-3.026,1-4.956,3.877-10.4,3.877s-7.327-2.87-10.4-3.884c-3.661-1.211-6.507-.5-7.469-1.164-.781-.539-.146-2.033-1.221-2.726-1.268-.816-2.9-.671-5.346-2.017-1.56-.861-.675-1.394-.155-1.646,8.875-4.3,10.291-10.931,10.354-11.424a1.569,1.569,0,0,0-.5-1.671c-.634-.586-3.448-2.327-4.228-2.872-1.292-.9-1.86-1.8-1.441-2.91a1.737,1.737,0,0,1,1.757-1.054,3.265,3.265,0,0,1,.7.079c1.417.307,2.794,1.018,3.59,1.21a1.27,1.27,0,0,0,.293.04c.425,0,.574-.214.545-.7a51.856,51.856,0,0,1-.066-7.4A11.731,11.731,0,0,1,31.5,24.586a13.726,13.726,0,0,1,10.495-4.367,13.773,13.773,0,0,1,10.5,4.35,11.707,11.707,0,0,1,3.076,7.516,50.546,50.546,0,0,1-.066,7.4c-.034.511.12.7.545.7a1.258,1.258,0,0,0,.293-.04c.8-.192,2.173-.9,3.591-1.21a3.265,3.265,0,0,1,.7-.079A1.74,1.74,0,0,1,62.4,39.91c.419,1.107-.146,2.008-1.44,2.91-.781.545-3.594,2.285-4.228,2.872a1.566,1.566,0,0,0-.5,1.671c.063.5,1.478,7.134,10.354,11.423C67.114,59.049,68,59.582,66.439,60.45Z" transform="translate(261.661 575)"/>
  </g>
</svg>
