<svg xmlns="http://www.w3.org/2000/svg" width="147" height="175" viewBox="0 0 147 175">
  <g id="twit" transform="translate(-53 -533)">
    <rect id="Rectangle_6" data-name="Rectangle 6" width="147" height="175" rx="17" transform="translate(53 533)" fill="#55adee"/>
    <path id="twitter" d="M62.31,62.139c.044.617.044,1.234.044,1.851,0,18.816-14.322,40.5-40.5,40.5A40.223,40.223,0,0,1,0,98.1a29.443,29.443,0,0,0,3.437.176,28.506,28.506,0,0,0,17.671-6.081A14.259,14.259,0,0,1,7.8,82.322a17.951,17.951,0,0,0,2.688.22,15.054,15.054,0,0,0,3.746-.485A14.235,14.235,0,0,1,2.82,68.088v-.176a14.335,14.335,0,0,0,6.434,1.807A14.255,14.255,0,0,1,4.847,50.682,40.458,40.458,0,0,0,34.2,65.576a16.068,16.068,0,0,1-.353-3.261,14.247,14.247,0,0,1,24.633-9.739A28.023,28.023,0,0,0,67.51,49.14a14.2,14.2,0,0,1-6.257,7.844,28.534,28.534,0,0,0,8.2-2.2,30.6,30.6,0,0,1-7.139,7.359Z" transform="translate(92 543.918)" fill="#fff"/>
  </g>
</svg>
