<svg xmlns="http://www.w3.org/2000/svg" width="147" height="175" viewBox="0 0 147 175">
  <g id="whats" transform="translate(-230 -740)">
    <rect id="Rectangle_9" data-name="Rectangle 9" width="147" height="175" rx="17" transform="translate(230 740)" fill="#26a619"/>
    <path id="whatsapp" d="M48,40.2A27.986,27.986,0,0,0,3.97,73.965L0,88.457l14.833-3.894a27.891,27.891,0,0,0,13.371,3.4h.013A27.8,27.8,0,0,0,48,40.2ZM28.216,83.252A23.212,23.212,0,0,1,16.37,80.014l-.844-.5-8.8,2.306,2.344-8.582-.554-.882A23.3,23.3,0,1,1,51.731,59.989,23.513,23.513,0,0,1,28.216,83.252ZM40.969,65.836c-.693-.353-4.133-2.042-4.776-2.268s-1.109-.353-1.575.353-1.8,2.268-2.218,2.747-.819.529-1.512.176c-4.108-2.054-6.805-3.667-9.515-8.317-.718-1.235.718-1.147,2.054-3.818a1.3,1.3,0,0,0-.063-1.222c-.176-.353-1.575-3.793-2.155-5.192-.567-1.361-1.147-1.172-1.575-1.2-.4-.025-.87-.025-1.336-.025a2.59,2.59,0,0,0-1.865.87,7.855,7.855,0,0,0-2.445,5.835c0,3.44,2.508,6.767,2.848,7.234s4.927,7.523,11.947,10.561c4.436,1.916,6.175,2.079,8.393,1.752,1.348-.2,4.133-1.689,4.713-3.327a5.846,5.846,0,0,0,.4-3.327C42.129,66.353,41.662,66.177,40.969,65.836Z" transform="translate(275 767)" fill="#fff"/>
  </g>
</svg>
